<svg width="24" height="24" viewBox="0 0 24 24" fill="none" xmlns="http://www.w3.org/2000/svg">
<path d="M7 2H17C20 2 22 4 22 7V17C22 20 20 22 17 22H7C4 22 2 20 2 17V7C2 4 4 2 7 2Z" stroke="#e91e63" stroke-width="2" stroke-linecap="round" stroke-linejoin="round"></path>
<path d="M16 11.37C16.1234 12.2022 15.9811 13.052 15.5943 13.799C15.2075 14.5461 14.5943 15.1556 13.8416 15.536C13.0888 15.9165 12.2332 16.0495 11.3989 15.917C10.5647 15.7845 9.78865 15.3934 9.17157 14.7763C8.55449 14.1592 8.16344 13.3831 8.03095 12.5489C7.89846 11.7146 8.03153 10.859 8.41204 10.1062C8.79256 9.35346 9.40203 8.74022 10.1491 8.35342C10.8962 7.96663 11.746 7.82434 12.5783 7.94775C13.4205 8.07265 14.2088 8.4663 14.8358 9.09332C15.4628 9.72033 15.8565 10.5085 15.9814 11.3508L16 11.37Z" stroke="#e91e63" stroke-width="2" stroke-linecap="round" stroke-linejoin="round"></path>
<circle cx="17.5" cy="6.5" r="1.5" fill="#e91e63"></circle>
</svg>
