<svg xmlns="http://www.w3.org/2000/svg" fill="white" viewBox="0 0 24 24">
  <path d="M12 .5C5.648.5.5 5.648.5 12a11.46 11.46 0 0 0 1.629 5.9L.5 23.5l5.775-1.573A11.46 11.46 0 0 0 12 23.5c6.352 0 11.5-5.148 11.5-11.5S18.352.5 12 .5zm0 20.948a9.39 9.39 0 0 1-4.773-1.311l-.342-.203-3.43.936.915-3.346-.224-.352A9.414 9.414 0 0 1 2.61 12c0-5.174 4.215-9.39 9.39-9.39S21.39 6.826 21.39 12 17.174 21.448 12 21.448zm5.19-7.038c-.283-.141-1.674-.828-1.933-.922-.259-.095-.448-.141-.637.142-.189.283-.731.922-.896 1.111-.165.189-.33.212-.614.071-.283-.142-1.194-.44-2.273-1.404-.84-.748-1.407-1.672-1.572-1.955-.165-.283-.018-.436.124-.577.127-.126.283-.33.425-.496.142-.165.189-.283.283-.472.095-.189.047-.354-.024-.496-.071-.142-.637-1.54-.873-2.108-.23-.554-.464-.48-.637-.488l-.544-.01c-.189 0-.496.071-.754.354-.259.283-.99.967-.99 2.357s1.014 2.732 1.155 2.92c.142.189 1.992 3.037 4.823 4.26.674.291 1.199.466 1.608.598.675.215 1.288.185 1.772.112.54-.081 1.674-.683 1.91-1.341.236-.657.236-1.22.165-1.341-.071-.121-.259-.189-.543-.33z"></path>
</svg>
